<svg width="256" height="180" viewBox="0 0 256 180" version="1.1" xmlns="http://www.w3.org/2000/svg">
  <rect width="100%" height="100%" fill="none" />
  <path d="m 221.7,112.8 18.6,5 -74.6,20 v -10 z" fill="#c40027" />
  <path d="M 35.2,71.5 53.9,66.5 128.5,86.5 109.8,91.5 Z" fill="#c30027" />
  <path d="m 16.6,117.9 18.6,-5 55.9,15 v 10 z" fill="#c40027" />
  <path d="M 35.2,71.5 V 45.2 l 18.6,5 V 66.5 Z" fill="#383880" />
  <path d="m 109.8,40.1 18.6,-5 v 25.1 l -18.6,5 z" fill="#383880" />
  <path d="m 109.8,167.6 18.6,-5 V 86.5 l -18.6,5 z" fill="#383880" />
  <path d="m 128.5,162.6 18.6,5 V 40.1 l -18.6,-5 z" fill="#3fa144" />
  <path d="m 128.5,35.1 93.2,-25 18.6,5 -93.2,25 z" fill="#f1ab00" />
  <path d="M 128.5,35.1 109.8,40.1 16.6,15.2 35.2,10.2 Z" fill="#f1aa00" />
  <path d="m 16.6,15.2 93.2,25 v 25.1 l -74.6,-20 v 26.3 l 74.6,20 v 76.1 l -93.2,-25 v -24.7 l 74.6,20 v -24.7 l -74.6,-20 z" fill="#3fa244" />
  <path d="m 147.1,167.6 93.2,-25 V 117.8 L 165.7,137.8 V 60 L 240.3,40 v -24.8 l -93.2,25 z" fill="#383880" />
  <path d="m 217.7,66.5 -17.4,4.7 v 38.4 l 17.4,-4.7 V 82.1 l -11.4,3.1 v -7.6 l 11.4,-3.1 z m -5.4,24.7 v 7.5 l -6,-1.6 v -7.5 z" fill="#c30027" />
  <path d="m 222.2,65.3 6.1,-1.6 v 15.6 l 6,-1.6 V 62.1 l 6.1,-1.6 v 38.4 l -6.1,1.6 v -15.2 l -12.1,3.3 z" fill="#c40027" />
</svg>
